<?xml version="1.0" encoding="utf-8"?>
<!-- Generator: Adobe Illustrator 23.0.3, SVG Export Plug-In . SVG Version: 6.00 Build 0)  -->
<svg version="1.1"
	 id="svg1123" inkscape:version="1.0.2-2 (e86c870879, 2021-01-15)" sodipodi:docname="icon_info.svg" xmlns:cc="http://creativecommons.org/ns#" xmlns:dc="http://purl.org/dc/elements/1.1/" xmlns:inkscape="http://www.inkscape.org/namespaces/inkscape" xmlns:rdf="http://www.w3.org/1999/02/22-rdf-syntax-ns#" xmlns:sodipodi="http://sodipodi.sourceforge.net/DTD/sodipodi-0.dtd" xmlns:svg="http://www.w3.org/2000/svg"
	 xmlns="http://www.w3.org/2000/svg" xmlns:xlink="http://www.w3.org/1999/xlink" x="0px" y="0px" viewBox="0 0 18 18"
	 style="enable-background:new 0 0 18 18;" xml:space="preserve">
<style type="text/css">
	.st0{fill:#C3CCDF;stroke:#C3CCDF;stroke-width:0.5;stroke-miterlimit:10;}
</style>
<defs>
	
	
		<inkscape:path-effect  apply_no_radius="true" apply_with_radius="true" chamfer_steps="1" effect="fillet_chamfer" flexible="false" hide_knots="false" id="path-effect845" is_visible="true" lpeversion="1" method="auto" mode="F" only_selected="true" radius="1" satellites_param="F,0,1,1,0,0.26458333,0,1 @ F,0,1,1,0,0.26458333,0,1 @ F,0,1,1,0,0.26458333,0,1 @ F,0,1,1,0,0.26458333,0,1 | F,0,0,1,0,0,0,1 @ F,0,0,1,0,0,0,1 @ F,0,0,1,0,0,0,1 @ F,0,0,1,0,0,0,1" unit="px" use_knot_distance="true">
		</inkscape:path-effect>
</defs>
<sodipodi:namedview  bordercolor="#666666" borderopacity="1.0" id="base" inkscape:current-layer="layer1" inkscape:cx="7.9999996" inkscape:cy="11.367157" inkscape:document-rotation="0" inkscape:document-units="mm" inkscape:pageopacity="0.0" inkscape:pageshadow="2" inkscape:window-height="1027" inkscape:window-maximized="1" inkscape:window-width="1920" inkscape:window-x="1912" inkscape:window-y="-8" inkscape:zoom="47.163271" pagecolor="#ffffff" showgrid="false" units="px">
	</sodipodi:namedview>
<g>
	<path class="st0" d="M10.1,0.7C9.8,0.7,9.5,0.8,9.3,1c0,0,0,0,0,0c0,0,0,0,0,0L7.1,3.2L4.2,6L0.8,9.3c-0.4,0.4-0.4,1.1,0,1.5
		L7.1,17c0.4,0.4,1.1,0.4,1.6,0l3.4-3.4l2.9-2.8l2.2-2.2c0,0,0,0,0,0v0c0.2-0.2,0.3-0.5,0.3-0.8V1.8c0-0.3-0.1-0.6-0.3-0.8
		c-0.2-0.2-0.5-0.3-0.8-0.3L10.1,0.7L10.1,0.7z M10.1,1.1h6.3c0.2,0,0.4,0.1,0.5,0.2c0.1,0.1,0.2,0.3,0.2,0.5v6.1
		c0,0.2-0.1,0.4-0.2,0.5c0,0,0,0,0,0l0,0l-2.2,2.2l-2.9,2.8l-3.4,3.4c-0.3,0.3-0.7,0.3-1,0l-6.3-6.1c-0.3-0.3-0.3-0.7,0-1l3.4-3.4
		l2.9-2.8l2.2-2.2c0,0,0,0,0,0s0,0,0,0C9.8,1.2,9.9,1.1,10.1,1.1L10.1,1.1z M14.8,2.1c-0.3,0-0.6,0.1-0.9,0.3
		c-0.5,0.5-0.5,1.2,0,1.7c0.5,0.5,1.2,0.5,1.7,0c0.5-0.5,0.5-1.2,0-1.7c0,0,0,0,0,0s0,0,0,0c0,0,0,0,0,0c0,0,0,0,0,0
		C15.4,2.2,15.1,2.1,14.8,2.1L14.8,2.1z M14.8,2.5c0.2,0,0.4,0.1,0.6,0.2c0.3,0.3,0.3,0.8,0,1.1c-0.3,0.3-0.8,0.3-1.1,0
		C14,3.5,14,3,14.3,2.7C14.4,2.6,14.6,2.5,14.8,2.5L14.8,2.5z M10.2,3.3c0,0-0.1,0-0.1,0.1l-7,6.8C3,10.2,3,10.4,3,10.4
		c0.1,0.1,0.2,0.1,0.3,0l7-6.8C10.5,3.5,10.3,3.3,10.2,3.3C10.2,3.3,10.2,3.3,10.2,3.3L10.2,3.3z M11.4,6.4c0,0-0.1,0-0.1,0.1
		l-5,4.9c-0.1,0.1-0.1,0.2,0,0.3c0.1,0.1,0.2,0.1,0.3,0l5-4.9C11.7,6.6,11.6,6.4,11.4,6.4L11.4,6.4z M14.6,7.6c0,0-0.1,0-0.1,0.1
		l-7,6.8c-0.1,0.1-0.1,0.2,0,0.3c0.1,0.1,0.2,0.1,0.3,0l7-6.8C14.9,7.9,14.8,7.6,14.6,7.6L14.6,7.6z"/>
</g>
</svg>
