<?xml version="1.0" encoding="utf-8"?>
<!-- Generator: Adobe Illustrator 23.0.3, SVG Export Plug-In . SVG Version: 6.00 Build 0)  -->
<svg version="1.1"
	 id="svg1123" xmlns:cc="http://creativecommons.org/ns#" xmlns:dc="http://purl.org/dc/elements/1.1/" xmlns:inkscape="http://www.inkscape.org/namespaces/inkscape" xmlns:rdf="http://www.w3.org/1999/02/22-rdf-syntax-ns#" xmlns:sodipodi="http://sodipodi.sourceforge.net/DTD/sodipodi-0.dtd" xmlns:svg="http://www.w3.org/2000/svg"
	 xmlns="http://www.w3.org/2000/svg" xmlns:xlink="http://www.w3.org/1999/xlink" x="0px" y="0px" viewBox="0 0 18 18"
	 style="enable-background:new 0 0 18 18;" xml:space="preserve">
<style type="text/css">
	.st0{fill:#C3CCDF;}
</style>
<defs>
	
	
		<inkscape:path-effect  apply_no_radius="true" apply_with_radius="true" chamfer_steps="1" effect="fillet_chamfer" flexible="false" hide_knots="false" id="path-effect845" is_visible="true" lpeversion="1" method="auto" mode="F" only_selected="true" radius="1" satellites_param="F,0,1,1,0,0.26458333,0,1 @ F,0,1,1,0,0.26458333,0,1 @ F,0,1,1,0,0.26458333,0,1 @ F,0,1,1,0,0.26458333,0,1 | F,0,0,1,0,0,0,1 @ F,0,0,1,0,0,0,1 @ F,0,0,1,0,0,0,1 @ F,0,0,1,0,0,0,1" unit="px" use_knot_distance="true">
		</inkscape:path-effect>
</defs>
<sodipodi:namedview  bordercolor="#666666" borderopacity="1.0" id="base" inkscape:current-layer="layer1" inkscape:cx="7.9999996" inkscape:cy="11.367157" inkscape:document-rotation="0" inkscape:document-units="mm" inkscape:pageopacity="0.0" inkscape:pageshadow="2" inkscape:window-height="1027" inkscape:window-maximized="1" inkscape:window-width="1920" inkscape:window-x="1912" inkscape:window-y="-8" inkscape:zoom="47.163271" pagecolor="#ffffff" showgrid="false" units="px">
	</sodipodi:namedview>
<title>sales and marketing</title>
<g>
	<path class="st0" d="M16,4.6V3.5C16,2.6,15.4,2,14.5,2H7.7L7.4,1.6C7.3,1.4,7.2,1.3,7,1.3H2C1.2,1.3,0.5,2,0.5,2.8v12.4
		c0,0.8,0.7,1.5,1.5,1.5h14c0.8,0,1.5-0.7,1.5-1.5V6.1C17.5,5.3,16.8,4.6,16,4.6z M14.5,3C14.8,3,15,3.2,15,3.5v1.1H9.3L8.3,3H14.5z
		 M16.5,15.2c0,0.3-0.2,0.5-0.5,0.5H2c-0.3,0-0.5-0.2-0.5-0.5V2.8c0-0.3,0.2-0.5,0.5-0.5h4.7L7,2.7c0,0,0,0,0,0l1.6,2.6c0,0,0,0,0,0
		l0,0C8.7,5.5,8.8,5.6,9,5.6h7c0.3,0,0.5,0.2,0.5,0.5V15.2z"/>
	<path class="st0" d="M11,11.1h-0.5V8.7c0-0.3-0.2-0.5-0.5-0.5H8c-0.3,0-0.5,0.2-0.5,0.5v2.4H7c-0.3,0-0.5,0.2-0.5,0.5v1.3
		c0,0.2,0.1,0.3,0.2,0.4l2,1.3c0.1,0.1,0.2,0.1,0.3,0.1s0.2,0,0.3-0.1l2-1.3c0.1-0.1,0.2-0.2,0.2-0.4v-1.3
		C11.4,11.3,11.2,11.1,11,11.1z M10.5,12.6l-1.5,1l-1.5-1v-0.6H8c0.3,0,0.5-0.2,0.5-0.5V9.2h1v2.4c0,0.3,0.2,0.5,0.5,0.5h0.5V12.6z"
		/>
</g>
</svg>
