<?xml version="1.0" encoding="utf-8"?>
<!-- Generator: Adobe Illustrator 23.0.3, SVG Export Plug-In . SVG Version: 6.00 Build 0)  -->
<svg version="1.1"
	 id="svg1123" xmlns:cc="http://creativecommons.org/ns#" xmlns:dc="http://purl.org/dc/elements/1.1/" xmlns:inkscape="http://www.inkscape.org/namespaces/inkscape" xmlns:rdf="http://www.w3.org/1999/02/22-rdf-syntax-ns#" xmlns:sodipodi="http://sodipodi.sourceforge.net/DTD/sodipodi-0.dtd" xmlns:svg="http://www.w3.org/2000/svg"
	 xmlns="http://www.w3.org/2000/svg" xmlns:xlink="http://www.w3.org/1999/xlink" x="0px" y="0px" viewBox="0 0 18 18"
	 style="enable-background:new 0 0 18 18;" xml:space="preserve">
<style type="text/css">
	.st0{fill:#C3CCDF;}
</style>
<defs>
	
	
		<inkscape:path-effect  apply_no_radius="true" apply_with_radius="true" chamfer_steps="1" effect="fillet_chamfer" flexible="false" hide_knots="false" id="path-effect845" is_visible="true" lpeversion="1" method="auto" mode="F" only_selected="true" radius="1" satellites_param="F,0,1,1,0,0.26458333,0,1 @ F,0,1,1,0,0.26458333,0,1 @ F,0,1,1,0,0.26458333,0,1 @ F,0,1,1,0,0.26458333,0,1 | F,0,0,1,0,0,0,1 @ F,0,0,1,0,0,0,1 @ F,0,0,1,0,0,0,1 @ F,0,0,1,0,0,0,1" unit="px" use_knot_distance="true">
		</inkscape:path-effect>
</defs>
<sodipodi:namedview  bordercolor="#666666" borderopacity="1.0" id="base" inkscape:current-layer="layer1" inkscape:cx="7.9999996" inkscape:cy="11.367157" inkscape:document-rotation="0" inkscape:document-units="mm" inkscape:pageopacity="0.0" inkscape:pageshadow="2" inkscape:window-height="1027" inkscape:window-maximized="1" inkscape:window-width="1920" inkscape:window-x="1912" inkscape:window-y="-8" inkscape:zoom="47.163271" pagecolor="#ffffff" showgrid="false" units="px">
	</sodipodi:namedview>
<title>sales and marketing</title>
<g>
	<g>
		<circle class="st0" cx="9.2" cy="14" r="0.6"/>
		<path class="st0" d="M9.2,12.6c0.2,0,0.4-0.2,0.4-0.4V7.5c0-0.2-0.2-0.4-0.4-0.4C9,7.1,8.8,7.3,8.8,7.5v4.7
			C8.8,12.4,9,12.6,9.2,12.6z"/>
	</g>
	<path class="st0" d="M10.3,3.2c-0.1,0-0.2,0-0.2-0.1C9.9,3,9.9,2.7,10,2.5l0.8-1L9.3,1.7c0,0-0.1,0-0.1,0L7.7,1.5l0.8,1
		C8.6,2.7,8.6,3,8.4,3.1C8.2,3.3,7.9,3.2,7.8,3L6.4,1.3c-0.1-0.1-0.1-0.3,0-0.4c0.1-0.1,0.2-0.2,0.4-0.2l2.4,0.3l2.4-0.3
		c0.2,0,0.3,0.1,0.4,0.2s0.1,0.3,0,0.4L10.7,3C10.6,3.2,10.5,3.2,10.3,3.2z"/>
	<path class="st0" d="M9.2,17.4c-2.8,0-6,0-6-4.1c0-3.8,2.7-9.7,6-9.7s6,5.8,6,9.7C15.2,17.4,12,17.4,9.2,17.4z M9.2,4.5
		C8,4.5,6.7,5.6,5.7,7.5c-1,1.8-1.6,4-1.6,5.8c0,3.1,1.9,3.3,5.1,3.3s5.1-0.2,5.1-3.3c0-1.7-0.6-4-1.6-5.8
		C11.7,5.6,10.4,4.5,9.2,4.5z"/>
</g>
</svg>
