<?xml version="1.0" encoding="utf-8"?>
<!-- Generator: Adobe Illustrator 23.0.3, SVG Export Plug-In . SVG Version: 6.00 Build 0)  -->
<svg version="1.1"
	 id="svg1123" xmlns:cc="http://creativecommons.org/ns#" xmlns:dc="http://purl.org/dc/elements/1.1/" xmlns:inkscape="http://www.inkscape.org/namespaces/inkscape" xmlns:rdf="http://www.w3.org/1999/02/22-rdf-syntax-ns#" xmlns:sodipodi="http://sodipodi.sourceforge.net/DTD/sodipodi-0.dtd" xmlns:svg="http://www.w3.org/2000/svg"
	 xmlns="http://www.w3.org/2000/svg" xmlns:xlink="http://www.w3.org/1999/xlink" x="0px" y="0px" viewBox="0 0 18 18"
	 style="enable-background:new 0 0 18 18;" xml:space="preserve">
<style type="text/css">
	.st0{fill:#C3CCDF;}
</style>
<defs>
	
	
		<inkscape:path-effect  apply_no_radius="true" apply_with_radius="true" chamfer_steps="1" effect="fillet_chamfer" flexible="false" hide_knots="false" id="path-effect845" is_visible="true" lpeversion="1" method="auto" mode="F" only_selected="true" radius="1" satellites_param="F,0,1,1,0,0.26458333,0,1 @ F,0,1,1,0,0.26458333,0,1 @ F,0,1,1,0,0.26458333,0,1 @ F,0,1,1,0,0.26458333,0,1 | F,0,0,1,0,0,0,1 @ F,0,0,1,0,0,0,1 @ F,0,0,1,0,0,0,1 @ F,0,0,1,0,0,0,1" unit="px" use_knot_distance="true">
		</inkscape:path-effect>
</defs>
<sodipodi:namedview  bordercolor="#666666" borderopacity="1.0" id="base" inkscape:current-layer="layer1" inkscape:cx="7.9999996" inkscape:cy="11.367157" inkscape:document-rotation="0" inkscape:document-units="mm" inkscape:pageopacity="0.0" inkscape:pageshadow="2" inkscape:window-height="1027" inkscape:window-maximized="1" inkscape:window-width="1920" inkscape:window-x="1912" inkscape:window-y="-8" inkscape:zoom="47.163271" pagecolor="#ffffff" showgrid="false" units="px">
	</sodipodi:namedview>
<title>sales and marketing</title>
<g id="_25_Outcome">
	<g id="Glyph">
		<path class="st0" d="M9.1,0.3c-1.6,0-3,1.3-3,3s1.3,3,3,3s3-1.3,3-3C12.1,1.7,10.8,0.3,9.1,0.3z M9.4,4.6v0.5H8.9V4.6H8.3V4.1h1.1
			c0.1,0,0.3-0.1,0.3-0.3S9.5,3.6,9.4,3.6H8.9c-0.4,0-0.8-0.4-0.8-0.8s0.4-0.8,0.8-0.8V1.4h0.5v0.5h0.5v0.5H8.9
			c-0.1,0-0.3,0.1-0.3,0.3S8.7,3,8.9,3h0.5c0.4,0,0.8,0.4,0.8,0.8S9.8,4.6,9.4,4.6z"/>
		<path class="st0" d="M6.9,5.9L5.1,4.1L3.3,5.9l0.4,0.4l0.6-0.6v2.2h1.6V5.7l0.6,0.6L6.9,5.9z"/>
		<path class="st0" d="M15,5.9l-1.8-1.8l-1.8,1.8l0.4,0.4l0.6-0.6v2.2H14V5.7l0.6,0.6L15,5.9z"/>
		<path class="st0" d="M11.3,13.8h0.5v0.5h-0.5V13.8z"/>
		<path class="st0" d="M14,16c0-0.8-0.1-4-1.5-6c0.3-0.2,0.7-0.7,0.7-1.4V8.4H5.1v0.3c0,0.7,0.4,1.1,0.7,1.4c-1.4,2-1.5,5.1-1.5,6
			c-0.8,0.4-0.7,1.3,0.2,1.5l0,0h9.2l0,0C14.6,17.3,14.8,16.4,14,16L14,16z M5.7,8.9h6.9c-0.3,1.1-2.3,1.8-3.5,1.8c0,0,0,0,0,0
			C9.1,10.3,8.7,10,8.3,10H7.8c-0.2,0-0.4,0.1-0.6,0.3C6.6,10,5.9,9.6,5.7,8.9z M7.8,10.6h0.5c0.4,0,0.4,0.5,0,0.5H7.8
			C7.4,11.1,7.4,10.6,7.8,10.6z M13.7,17H4.6c-0.4-0.1-0.4-0.4,0-0.5h1.8v-0.5H4.8c0-0.9,0.1-3.8,1.4-5.6c0.2,0.2,0.5,0.3,0.8,0.4
			c0,0.2,0.1,0.5,0.3,0.7v1.3h0.5v-1.1h0.5v2.2h0.5v-2.4C8.9,11.4,9,11.3,9,11.2c1.1,0,2.1-0.3,3-0.9c0.7,1,1.1,2.3,1.2,3.4h-0.9
			v0.5h1c0,0.2,0,0.4,0.1,0.5h-2.6v0.5h2.7c0,0.2,0,0.4,0,0.5h-2.2v0.5h2.4C14.1,16.6,14.1,16.9,13.7,17L13.7,17z"/>
	</g>
</g>
</svg>
