<?xml version="1.0" encoding="utf-8"?>
<!-- Generator: Adobe Illustrator 23.0.3, SVG Export Plug-In . SVG Version: 6.00 Build 0)  -->
<svg version="1.1"
	 id="svg1123" xmlns:cc="http://creativecommons.org/ns#" xmlns:dc="http://purl.org/dc/elements/1.1/" xmlns:inkscape="http://www.inkscape.org/namespaces/inkscape" xmlns:rdf="http://www.w3.org/1999/02/22-rdf-syntax-ns#" xmlns:sodipodi="http://sodipodi.sourceforge.net/DTD/sodipodi-0.dtd" xmlns:svg="http://www.w3.org/2000/svg"
	 xmlns="http://www.w3.org/2000/svg" xmlns:xlink="http://www.w3.org/1999/xlink" x="0px" y="0px" viewBox="0 0 18 18"
	 style="enable-background:new 0 0 18 18;" xml:space="preserve">
<style type="text/css">
	.st0{fill:#C3CCDF;stroke:#C3CCDF;stroke-width:0.25;stroke-miterlimit:10;}
	.st1{fill:#C3CCDF;}
</style>
<defs>
	
	
		<inkscape:path-effect  apply_no_radius="true" apply_with_radius="true" chamfer_steps="1" effect="fillet_chamfer" flexible="false" hide_knots="false" id="path-effect845" is_visible="true" lpeversion="1" method="auto" mode="F" only_selected="true" radius="1" satellites_param="F,0,1,1,0,0.26458333,0,1 @ F,0,1,1,0,0.26458333,0,1 @ F,0,1,1,0,0.26458333,0,1 @ F,0,1,1,0,0.26458333,0,1 | F,0,0,1,0,0,0,1 @ F,0,0,1,0,0,0,1 @ F,0,0,1,0,0,0,1 @ F,0,0,1,0,0,0,1" unit="px" use_knot_distance="true">
		</inkscape:path-effect>
</defs>
<sodipodi:namedview  bordercolor="#666666" borderopacity="1.0" id="base" inkscape:current-layer="layer1" inkscape:cx="7.9999996" inkscape:cy="11.367157" inkscape:document-rotation="0" inkscape:document-units="mm" inkscape:pageopacity="0.0" inkscape:pageshadow="2" inkscape:window-height="1027" inkscape:window-maximized="1" inkscape:window-width="1920" inkscape:window-x="1912" inkscape:window-y="-8" inkscape:zoom="47.163271" pagecolor="#ffffff" showgrid="false" units="px">
	</sodipodi:namedview>
<title>sales and marketing</title>
<path class="st0" d="M8.4,5.1C8.3,5,8.2,5,8.1,5.1L2.2,9.3c-0.1,0.1-0.1,0.2,0,0.3c0.1,0.1,0.2,0.1,0.3,0l0,0l5.8-4.2l1.9,2.3
	c0.1,0.1,0.2,0.1,0.3,0l4.8-3.7l0.7,0.7c0.1,0.1,0.2,0.1,0.3,0c0,0,0.1-0.1,0.1-0.1L16.3,3c0-0.1-0.1-0.2-0.2-0.2l-1.7-0.1
	c-0.1,0-0.2,0.1-0.2,0.2c0,0.1,0,0.1,0,0.1l0.7,0.8l-4.6,3.5L8.4,5.1z"/>
<path class="st1" d="M11.2,10.1c0-0.2-0.2-0.4-0.4-0.4H7.1c-0.2,0-0.4,0.2-0.4,0.4v0c0,0.2,0.2,0.4,0.4,0.4h3.8
	C11.1,10.6,11.2,10.4,11.2,10.1L11.2,10.1z"/>
<path class="st1" d="M10.8,14.7H7.9c-0.3,0.3-0.7,0.6-1.1,0.7c0.1,0.1,0.2,0.1,0.3,0.1h3.7c0.2,0,0.4-0.2,0.4-0.4
	C11.2,14.9,11,14.7,10.8,14.7L10.8,14.7z"/>
<path class="st1" d="M10.8,13.5H8.4c0,0.3-0.1,0.6-0.2,0.8h2.6c0.2,0,0.4-0.2,0.4-0.4C11.2,13.6,11,13.5,10.8,13.5z"/>
<path class="st1" d="M10.8,12.2H8.2c0.1,0.3,0.2,0.5,0.2,0.8h2.4c0.2,0,0.4-0.2,0.4-0.4S11,12.2,10.8,12.2L10.8,12.2z"/>
<path class="st1" d="M7.1,16h3.8c0.2,0,0.4,0.2,0.4,0.4v0c0,0.2-0.2,0.4-0.4,0.4H7.1c-0.2,0-0.4-0.2-0.4-0.4v0
	C6.7,16.1,6.9,16,7.1,16z"/>
<path class="st1" d="M10.8,11H7.1c-0.1,0-0.2,0-0.3,0.1c0.4,0.1,0.8,0.4,1.1,0.7h2.9c0.2,0,0.4-0.2,0.4-0.4C11.2,11.2,11,11,10.8,11
	z"/>
<path class="st1" d="M1.1,16.4c0,0.2,0.2,0.4,0.4,0.4h3.8c0.2,0,0.4-0.2,0.4-0.4v0c0-0.2-0.1-0.3-0.3-0.4c0,0-0.1,0-0.1,0H1.5
	c0,0-0.1,0-0.1,0C1.2,16,1.1,16.1,1.1,16.4L1.1,16.4z"/>
<path class="st1" d="M1.4,15.5C1.4,15.5,1.4,15.5,1.4,15.5l3.8,0c0,0,0,0,0.1,0c0.1,0,0.1,0,0.2-0.1C5,15.3,4.7,15,4.4,14.7H1.5
	c-0.2,0-0.4,0.2-0.4,0.4C1.1,15.3,1.2,15.5,1.4,15.5L1.4,15.5z"/>
<path class="st1" d="M4.3,13.2c0,1,0.8,1.9,1.9,1.9c1,0,1.9-0.8,1.9-1.9c0-1-0.8-1.9-1.9-1.9C5.1,11.4,4.3,12.2,4.3,13.2z M6.3,11.7
	v0.1c0.3,0.1,0.6,0.4,0.6,0.8c0,0.1-0.1,0.2-0.2,0.2c-0.1,0-0.2-0.1-0.2-0.2c0-0.2-0.2-0.4-0.4-0.4c-0.2,0-0.4,0.2-0.4,0.4
	S5.9,13,6.1,13c0,0,0,0,0,0c0.4,0,0.8,0.4,0.8,0.8c0,0.4-0.2,0.7-0.6,0.8v0.2c0,0.1-0.1,0.2-0.2,0.2s-0.2-0.1-0.2-0.2v-0.2
	c-0.3-0.1-0.6-0.4-0.6-0.8c0-0.1,0.1-0.2,0.2-0.2c0.1,0,0.2,0.1,0.2,0.2c0,0.2,0.2,0.4,0.4,0.4c0,0,0,0,0,0s0,0,0,0
	c0.2,0,0.4-0.2,0.4-0.4c0-0.2-0.2-0.4-0.4-0.4c-0.4,0-0.8-0.4-0.8-0.8c0-0.4,0.2-0.7,0.6-0.8v-0.1c0-0.1,0.1-0.2,0.2-0.2
	S6.3,11.6,6.3,11.7L6.3,11.7z"/>
<path class="st1" d="M1.1,13.9c0,0.2,0.2,0.4,0.4,0.4h2.6C4,14,3.9,13.7,3.9,13.5H1.5C1.2,13.5,1.1,13.6,1.1,13.9z"/>
<path class="st1" d="M16.9,8.9c0-0.2-0.2-0.4-0.4-0.4c0,0,0,0,0,0h-3.8c0,0,0,0,0,0c-0.2,0-0.4,0.2-0.4,0.4v0c0,0.2,0.2,0.4,0.4,0.4
	c0,0,0,0,0,0h3.8c0,0,0,0,0,0C16.8,9.4,16.9,9.2,16.9,8.9L16.9,8.9z"/>
<path class="st1" d="M16.9,11.4c0-0.2-0.2-0.4-0.4-0.4c0,0,0,0,0,0h-3.8c0,0,0,0,0,0c-0.2,0-0.4,0.2-0.4,0.4v0
	c0,0.2,0.2,0.4,0.4,0.4c0,0,0,0,0,0h3.8c0,0,0,0,0,0C16.8,11.8,16.9,11.7,16.9,11.4L16.9,11.4z"/>
<path class="st1" d="M16.9,16.4L16.9,16.4c0-0.3-0.2-0.4-0.4-0.4c0,0,0,0,0,0h-3.8c0,0,0,0,0,0c-0.2,0-0.4,0.2-0.4,0.4v0
	c0,0.2,0.2,0.4,0.4,0.4h3.8C16.8,16.8,16.9,16.6,16.9,16.4z"/>
<path class="st1" d="M16.6,7.3h-3.8c-0.2,0-0.4,0.2-0.4,0.4v0c0,0.2,0.2,0.4,0.4,0.4c0,0,0,0,0,0h3.8c0,0,0,0,0,0
	c0.2,0,0.4-0.2,0.4-0.4v0C16.9,7.5,16.8,7.3,16.6,7.3z"/>
<path class="st1" d="M16.9,10.2c0-0.2-0.2-0.4-0.4-0.4c0,0,0,0,0,0h-3.8c0,0,0,0,0,0c-0.2,0-0.4,0.2-0.4,0.4v0
	c0,0.2,0.2,0.4,0.4,0.4c0,0,0,0,0,0h3.8c0,0,0,0,0,0C16.8,10.6,16.9,10.4,16.9,10.2L16.9,10.2z"/>
<path class="st1" d="M16.9,15.1c0-0.2-0.2-0.4-0.4-0.4c0,0,0,0,0,0h-3.8c0,0,0,0,0,0c-0.2,0-0.4,0.2-0.4,0.4v0
	c0,0.2,0.2,0.4,0.4,0.4c0,0,0,0,0,0h3.8c0,0,0,0,0,0C16.8,15.5,16.9,15.4,16.9,15.1L16.9,15.1z"/>
<path class="st1" d="M16.9,13.9c0-0.2-0.2-0.4-0.4-0.4c0,0,0,0,0,0h-3.8c0,0,0,0,0,0c-0.2,0-0.4,0.2-0.4,0.4v0
	c0,0.2,0.2,0.4,0.4,0.4c0,0,0,0,0,0h3.8c0,0,0,0,0,0C16.8,14.3,16.9,14.1,16.9,13.9L16.9,13.9z"/>
<path class="st1" d="M16.9,12.6c0-0.2-0.2-0.4-0.4-0.4c0,0,0,0,0,0h-3.8c0,0,0,0,0,0c-0.2,0-0.4,0.2-0.4,0.4v0
	c0,0.2,0.2,0.4,0.4,0.4c0,0,0,0,0,0h3.8c0,0,0,0,0,0C16.8,13.1,16.9,12.9,16.9,12.6L16.9,12.6z"/>
</svg>
