<?xml version="1.0" encoding="utf-8"?>
<!-- Generator: Adobe Illustrator 23.0.3, SVG Export Plug-In . SVG Version: 6.00 Build 0)  -->
<svg version="1.1"
	 id="svg1123" xmlns:cc="http://creativecommons.org/ns#" xmlns:dc="http://purl.org/dc/elements/1.1/" xmlns:inkscape="http://www.inkscape.org/namespaces/inkscape" xmlns:rdf="http://www.w3.org/1999/02/22-rdf-syntax-ns#" xmlns:sodipodi="http://sodipodi.sourceforge.net/DTD/sodipodi-0.dtd" xmlns:svg="http://www.w3.org/2000/svg"
	 xmlns="http://www.w3.org/2000/svg" xmlns:xlink="http://www.w3.org/1999/xlink" x="0px" y="0px" viewBox="0 0 18 18"
	 style="enable-background:new 0 0 18 18;" xml:space="preserve">
<style type="text/css">
	.st0{fill:#C3CCDF;}
</style>
<defs>
	
	
		<inkscape:path-effect  apply_no_radius="true" apply_with_radius="true" chamfer_steps="1" effect="fillet_chamfer" flexible="false" hide_knots="false" id="path-effect845" is_visible="true" lpeversion="1" method="auto" mode="F" only_selected="true" radius="1" satellites_param="F,0,1,1,0,0.26458333,0,1 @ F,0,1,1,0,0.26458333,0,1 @ F,0,1,1,0,0.26458333,0,1 @ F,0,1,1,0,0.26458333,0,1 | F,0,0,1,0,0,0,1 @ F,0,0,1,0,0,0,1 @ F,0,0,1,0,0,0,1 @ F,0,0,1,0,0,0,1" unit="px" use_knot_distance="true">
		</inkscape:path-effect>
</defs>
<sodipodi:namedview  bordercolor="#666666" borderopacity="1.0" id="base" inkscape:current-layer="layer1" inkscape:cx="7.9999996" inkscape:cy="11.367157" inkscape:document-rotation="0" inkscape:document-units="mm" inkscape:pageopacity="0.0" inkscape:pageshadow="2" inkscape:window-height="1027" inkscape:window-maximized="1" inkscape:window-width="1920" inkscape:window-x="1912" inkscape:window-y="-8" inkscape:zoom="47.163271" pagecolor="#ffffff" showgrid="false" units="px">
	</sodipodi:namedview>
<title>sales and marketing</title>
<g>
	<g>
		<path class="st0" d="M17.5,15h-1.1v-7c0-0.3-0.2-0.5-0.5-0.5H13c-0.3,0-0.5,0.2-0.5,0.5v7H11V5.9c0-0.3-0.2-0.5-0.5-0.5H7.5
			C7.2,5.3,7,5.6,7,5.9V15H5.6V7.4c0-0.3-0.2-0.5-0.5-0.5H2.1c-0.3,0-0.5,0.2-0.5,0.5V15H0.5C0.2,15,0,15.2,0,15.5
			C0,15.8,0.2,16,0.5,16h16.9c0.3,0,0.5-0.2,0.5-0.5C18,15.2,17.8,15,17.5,15L17.5,15z M2.6,15V7.9h1.9V15H2.6z M8.1,15V6.4h1.9V15
			H8.1z M13.5,15V8.5h1.9V15H13.5z"/>
	</g>
	<path class="st0" d="M17.6,4c0-0.2-0.1-0.5-0.4-0.6L15.5,3c-0.3-0.1-0.6,0.1-0.6,0.4C14.8,3.7,15,4,15.3,4l0.5,0.1L14.4,5L9.2,2
		C9,1.9,8.9,1.9,8.7,2L3.6,4.4L1.1,2.9C0.8,2.7,0.5,2.8,0.4,3.1C0.2,3.3,0.3,3.6,0.5,3.8l2.7,1.7c0.2,0.1,0.3,0.1,0.5,0l5.2-2.4
		l5.2,3c0.1,0.1,0.3,0.1,0.5,0l1.7-1l-0.1,0.5c-0.1,0.7,0.9,0.9,1,0.2L17.6,4C17.6,4,17.6,4,17.6,4L17.6,4z"/>
</g>
</svg>
